<svg width="56" height="55" viewBox="0 0 56 55" fill="none" xmlns="http://www.w3.org/2000/svg">
<path d="M49.9773 0.956055H6.27734C3.51592 0.956055 1.27734 3.19463 1.27734 5.95606V48.9381C1.27734 51.6996 3.51592 53.9381 6.27735 53.9381H49.9773C52.7388 53.9381 54.9773 51.6996 54.9773 48.9381V5.95605C54.9773 3.19463 52.7388 0.956055 49.9773 0.956055Z" fill="#F18234" stroke="white" stroke-miterlimit="10"/>
<path d="M40.2775 19.7023H44.9775V13.1906C44.1775 13.0919 42.3775 12.7959 39.0775 12.7959C32.1775 12.7959 28.0775 16.4464 28.0775 24.6355V29.6673H20.9775V37.1657H28.0775V54.0371L36.2775 54.1357V37.067H43.7775L44.9775 29.5686H36.3775V25.4248C36.3775 22.4649 37.3775 19.7023 40.2775 19.7023Z" fill="#000025"/>
</svg>
